<svg id="logo" xmlns="http://www.w3.org/2000/svg" xmlns:xlink="http://www.w3.org/1999/xlink" width="100" height="51.422" viewBox="0 0 100 51.422">
  <defs>
    <clipPath id="clip-path">
      <rect id="Rectangle_2114" data-name="Rectangle 2114" width="100" height="51.422" fill="none"/>
    </clipPath>
  </defs>
  <g id="Group_67" data-name="Group 67" clip-path="url(#clip-path)">
    <path id="Path_9757" data-name="Path 9757" d="M67.565,51.422a25.86,25.86,0,0,1-10.074-2.031l-4.128-1.752,4.48-.2a23.279,23.279,0,0,0,10.243-2.908c.04-1.924.028-3.862.015-5.8-.012-1.907-.023-3.813-.024-5.7H59.6v2.524h3.856a1.762,1.762,0,0,1,1.759,1.76V42.64l-.821.336A17.7,17.7,0,0,1,57,44.6,13.276,13.276,0,0,1,43.935,31.151,13.3,13.3,0,0,1,57,17.656a13.68,13.68,0,0,1,8.07,2.9l1.851-1.959c.033-.13.02-.174-.027-.208a16.292,16.292,0,0,0-22.672,2.583L41.5,24.333l.941-4.228A25.711,25.711,0,0,1,86.289,8.127a25.5,25.5,0,0,1,6.9,19.279A25.848,25.848,0,0,1,70.047,51.3q-1.24.119-2.481.119m-5.108-2.573a23.7,23.7,0,0,0,28.7-21.573A23.682,23.682,0,0,0,67.531,2.035,23.859,23.859,0,0,0,45.615,16.759a18.348,18.348,0,0,1,22.507,0,2.194,2.194,0,0,1,.862,1.564,2.168,2.168,0,0,1-.584,1.667l-1.988,2.1a1.821,1.821,0,0,1-2.456.169A11.643,11.643,0,0,0,57,19.691a11.264,11.264,0,0,0-11.03,11.46A11.24,11.24,0,0,0,57,42.565a15.638,15.638,0,0,0,6.181-1.278v-3.7H59.363a1.8,1.8,0,0,1-1.8-1.8V32.886A1.89,1.89,0,0,1,59.455,31H68.27a1.843,1.843,0,0,1,1.842,1.84c0,1.944.013,3.913.024,5.88.013,1.95.024,3.9.024,5.826a2.162,2.162,0,0,1-.791,1.58,23.308,23.308,0,0,1-6.913,2.726" transform="translate(6.755 0)" fill="#faa61a"/>
    <path id="Path_9758" data-name="Path 9758" d="M20.267,22.087c0-4.685-3.184-9.413-10.3-9.413A11.092,11.092,0,0,0,1.078,17.4a.886.886,0,0,0,.143,1.23l.576.478a.912.912,0,0,0,1.313-.178c.059-.064.134-.15.223-.255a8.65,8.65,0,0,1,6.638-3.422c5.2,0,7.528,3.455,7.528,6.877,0,2.717-1.567,5.5-5.081,9.009L0,43.607v.958a.864.864,0,0,0,.9.85H19.138a.908.908,0,0,0,.9-.9v-.7a.907.907,0,0,0-.9-.894H4.206L14.317,32.857c3.673-3.673,5.95-6.757,5.95-10.77" transform="translate(0 2.063)" fill="#fff"/>
    <path id="Path_9759" data-name="Path 9759" d="M43.593,35.764H40.347q0-5.508-.023-11.019-.017-5.653-.023-11.308a.711.711,0,0,0-.8-.8h-.977L19.4,36.2l-.065.08v.894a.945.945,0,0,0,1.081.988H37.671v6.364a.822.822,0,0,0,.24.615,1.448,1.448,0,0,0,1.028.292c.1,0,.194,0,.286-.006l.227,0a.908.908,0,0,0,.9-.9v-6.41h3.247a.908.908,0,0,0,.9-.9v-.6a.865.865,0,0,0-.9-.85m-5.829-18.3V35.718H22.844Z" transform="translate(3.148 2.057)" fill="#fff"/>
  </g>
</svg>